<svg width="171" height="44" viewBox="0 0 171 44" fill="none" xmlns="http://www.w3.org/2000/svg">
<path d="M23.625 36H1.125C0.796875 36 0.515625 36.0938 0.28125 36.2812C0.09375 36.5156 0 36.7969 0 37.125V39.375C0 39.7031 0.09375 39.9609 0.28125 40.1484C0.515625 40.3828 0.796875 40.5 1.125 40.5H23.625C23.9531 40.5 24.2109 40.3828 24.3984 40.1484C24.6328 39.9609 24.75 39.7031 24.75 39.375V37.125C24.75 36.7969 24.6328 36.5156 24.3984 36.2812C24.2109 36.0938 23.9531 36 23.625 36ZM34.6641 12.0234L28.9688 6.32812C28.7812 6.14062 28.5234 6.04688 28.1953 6.04688C27.8672 6.04688 27.6094 6.14062 27.4219 6.32812L26.5781 7.17188C26.3906 7.35938 26.2969 7.61719 26.2969 7.94531C26.2969 8.27344 26.3906 8.53125 26.5781 8.71875L29.25 11.3906V15.75C29.25 16.7344 29.5781 17.6016 30.2344 18.3516C30.8906 19.0547 31.6875 19.4766 32.625 19.6172V30.9375C32.625 31.4062 32.4609 31.8047 32.1328 32.1328C31.8047 32.4609 31.4062 32.625 30.9375 32.625C30.4688 32.625 30.0703 32.4609 29.7422 32.1328C29.4141 31.8047 29.25 31.4062 29.25 30.9375V28.6875C29.25 27 28.6406 25.5469 27.4219 24.3281C26.2031 23.1094 24.75 22.5 23.0625 22.5H22.5V9C22.5 7.78125 22.0547 6.72656 21.1641 5.83594C20.2734 4.94531 19.2188 4.5 18 4.5H6.75C5.53125 4.5 4.47656 4.94531 3.58594 5.83594C2.69531 6.72656 2.25 7.78125 2.25 9V33.75H22.5V25.875H23.0625C23.8594 25.875 24.5156 26.1562 25.0312 26.7188C25.5938 27.2344 25.875 27.8906 25.875 28.6875V30.6562C25.875 32.0156 26.2969 33.2109 27.1406 34.2422C28.0312 35.2734 29.1328 35.8594 30.4453 36C31.9453 36.1406 33.2344 35.7188 34.3125 34.7344C35.4375 33.7031 36 32.4375 36 30.9375V15.2578C36 13.9922 35.5547 12.9141 34.6641 12.0234ZM18 18H6.75V9H18V18Z" fill="#7F7F7F"/>
<path d="M40.3613 33V31.9873L50.9697 11.2354H40.6934V9.19336H53.7588V10.2227L43.1504 30.958H53.7588V33H40.3613ZM66.791 27.4551H59.2539L57.6934 33H55.4688L62.4414 9.19336H63.5703L70.5762 33H68.3682L66.791 27.4551ZM59.835 25.4131H66.2266L63.0889 14.4395L63.0225 13.5596L62.9561 14.4395L59.835 25.4131ZM87.0283 18.0088C87.0283 18.8167 86.8734 19.5749 86.5635 20.2832C86.2646 20.9915 85.8496 21.6113 85.3184 22.1426C84.7871 22.6738 84.1618 23.0944 83.4424 23.4043C82.734 23.7031 81.9759 23.8525 81.168 23.8525H75.7725V33H73.6309V9.19336H81.168C81.9759 9.19336 82.734 9.34831 83.4424 9.6582C84.1618 9.95703 84.7871 10.3721 85.3184 10.9033C85.8496 11.4346 86.2646 12.0599 86.5635 12.7793C86.8734 13.4876 87.0283 14.2458 87.0283 15.0537V18.0088ZM84.8867 15.0537C84.8867 14.5225 84.7871 14.0299 84.5879 13.5762C84.3887 13.1113 84.112 12.7074 83.7578 12.3643C83.4147 12.0101 83.0107 11.7334 82.5459 11.5342C82.0921 11.335 81.5996 11.2354 81.0684 11.2354H75.7725V21.8105H81.0684C81.5996 21.8105 82.0921 21.7109 82.5459 21.5117C83.0107 21.3125 83.4147 21.0413 83.7578 20.6982C84.112 20.3551 84.3887 19.9567 84.5879 19.5029C84.7871 19.0381 84.8867 18.54 84.8867 18.0088V15.0537ZM102.318 33L95.8604 22.8398H92.9219V33H90.7803V9.19336H98.334C99.1419 9.19336 99.9001 9.34831 100.608 9.6582C101.317 9.95703 101.937 10.3721 102.468 10.9033C102.999 11.4346 103.414 12.0599 103.713 12.7793C104.023 13.4876 104.178 14.2458 104.178 15.0537V16.9795C104.178 17.7874 104.023 18.5511 103.713 19.2705C103.414 19.9788 102.999 20.5986 102.468 21.1299C101.937 21.6611 101.317 22.0817 100.608 22.3916C99.9001 22.6904 99.1419 22.8398 98.334 22.8398L104.792 33H102.318ZM102.036 15.0537C102.036 14.5225 101.937 14.0299 101.737 13.5762C101.538 13.1113 101.267 12.7074 100.924 12.3643C100.581 12.0101 100.177 11.7334 99.7119 11.5342C99.2581 11.335 98.7656 11.2354 98.2344 11.2354H92.9219V20.7979H98.2344C98.7656 20.7979 99.2581 20.6982 99.7119 20.499C100.177 20.2998 100.581 20.0286 100.924 19.6855C101.267 19.3314 101.538 18.9274 101.737 18.4736C101.937 18.0088 102.036 17.5107 102.036 16.9795V15.0537ZM117.824 27.4551H110.287L108.727 33H106.502L113.475 9.19336H114.604L121.609 33H119.401L117.824 27.4551ZM110.868 25.4131H117.26L114.122 14.4395L114.056 13.5596L113.989 14.4395L110.868 25.4131ZM129.063 27.7705L129.13 28.6504L129.196 27.7705L134.476 9.19336H136.684L129.678 33H128.549L121.576 9.19336H123.801L129.063 27.7705ZM151.359 33L142.395 21.0967L151.359 9.19336H154.016L144.868 21.0967L154.016 33H151.359ZM139.738 33V9.19336H141.88V33H139.738ZM166.367 27.4551H158.83L157.27 33H155.045L162.018 9.19336H163.146L170.152 33H167.944L166.367 27.4551ZM159.411 25.4131H165.803L162.665 14.4395L162.599 13.5596L162.532 14.4395L159.411 25.4131Z" fill="#7F7F7F"/>
</svg>
