<svg xmlns="http://www.w3.org/2000/svg" width="40" height="40" viewBox="0 0 40 40">
    <g fill="#0097A9" fill-rule="evenodd">
        <path d="M36.217 2.302a3.542 3.542 0 0 0-1.646.394L32.454 3.79A6.937 6.937 0 0 0 26.42.084a6.934 6.934 0 0 0-6.131 3.539L13.783 0 2.15 6.432a3.618 3.618 0 0 0-1.865 3.17v24.286a3.612 3.612 0 0 0 1.707 3.108c1.071.663 2.409.71 3.524.126l8.266-4.264 12.531 6.964 11.635-6.44a3.621 3.621 0 0 0 1.862-3.166v-24.3c-.004-1.996-1.612-3.612-3.594-3.614zM21.43 6.544c.07-.683.282-1.344.622-1.94a4.927 4.927 0 0 1 5.367-2.383 4.964 4.964 0 0 1 3.845 4.461c0 .132.017.268.017.403 0 1.928-2.763 6.84-4.943 10.216-2.183-3.376-4.946-8.288-4.946-10.216.002-.181.015-.362.038-.541zM4.61 35.32c-.222.12-.47.182-.722.184-.426 0-.834-.17-1.135-.474a1.62 1.62 0 0 1-.468-1.143V9.603c0-.586.316-1.125.825-1.407l9.669-5.344v28.244l-8.169 4.225zm33.2-5.105c0 .584-.317 1.122-.825 1.404l-9.715 5.37V23.683h-2v13.238L14.78 31.096V2.855l4.789 2.662a6.853 6.853 0 0 0-.178 1.56c0 3.242 4.655 10.41 5.883 12.25l.237.35.826 1.21.823-1.21.114-.166c.995-1.48 6-9.074 6-12.435 0-.462-.044-.922-.134-1.375l2.349-1.212a1.573 1.573 0 0 1 1.565.055c.475.296.761.821.752 1.384l.005 24.288z"/>
        <ellipse cx="26.337" cy="7.079" rx="1.977" ry="1.991"/>
    </g>
</svg>
