<svg xmlns="http://www.w3.org/2000/svg" width="90" height="106" viewBox="0 0 90 106">
  <g fill="none">
    <path fill="#060606" d="M45.26 105.45c15.66 0 28.35-2.85 28.35-6.36 0-3.52-12.7-6.37-28.35-6.37-15.66 0-28.35 2.85-28.35 6.37 0 3.5 12.69 6.36 28.35 6.36z" opacity=".1"/>
    <path fill="#42C2D0" stroke="#062531" stroke-width="3" d="M87.7 43.42c0 22.8-19.15 41.27-42.77 41.27-23.63 0-42.78-18.48-42.78-41.27 0-22.8 19.15-41.28 42.78-41.28 23.62 0 42.77 18.48 42.77 41.28"/>
    <path stroke="#062531" stroke-linecap="round" stroke-width="4.49" d="M61.23 59.05H29.7"/>
    <path fill="#FEFEFE" d="M39.37 33.6c0 5.8-4.88 10.5-10.9 10.5-6 0-10.88-4.7-10.88-10.5 0-1.3.24-2.53.68-3.67 1.55-4 5.53-6.84 10.2-6.84 4.68 0 8.67 2.85 10.21 6.84.45 1.14.69 2.38.69 3.67m32.9 0c0 5.8-4.88 10.5-10.9 10.5-6.01 0-10.89-4.7-10.89-10.5 0-1.3.24-2.53.69-3.67 1.54-4 5.53-6.84 10.2-6.84 4.68 0 8.67 2.85 10.21 6.84.44 1.14.68 2.38.68 3.67"/>
    <path fill="#062531" d="M33.46 33.6a4.9 4.9 0 0 1-4.98 4.81 4.9 4.9 0 0 1-4.99-4.8 4.9 4.9 0 0 1 4.99-4.82 4.9 4.9 0 0 1 4.98 4.81m32.9 0a4.9 4.9 0 0 1-4.99 4.81 4.9 4.9 0 0 1-4.98-4.8 4.9 4.9 0 0 1 4.98-4.82 4.9 4.9 0 0 1 4.99 4.81"/>
  </g>
</svg>
