<?xml version="1.0" encoding="UTF-8"?>
<svg width="170px" height="170px" viewBox="0 0 170 170" version="1.1" xmlns="http://www.w3.org/2000/svg" xmlns:xlink="http://www.w3.org/1999/xlink">
    <!-- Generator: sketchtool 49.3 (51167) - http://www.bohemiancoding.com/sketch -->
    <title>23071471-0EE9-43EA-A4D5-950561366DFE</title>
    <desc>Created with sketchtool.</desc>
    <defs>
        <polygon id="path-1" points="0.371571429 0 98.2906 0 98.2906 147.335114 0.371571429 147.335114"></polygon>
        <polygon id="path-3" points="0 0.530011429 127.804737 0.530011429 127.804737 22.3424686 0 22.3424686"></polygon>
        <polygon id="path-5" points="0.490085714 0 94.4048857 0 94.4048857 147.335114 0.490085714 147.335114"></polygon>
        <polygon id="path-7" points="0 0.529914286 127.804931 0.529914286 127.804931 22.3423714 0 22.3423714"></polygon>
        <polygon id="path-9" points="0.371571429 0 98.2906 0 98.2906 147.335114 0.371571429 147.335114"></polygon>
    </defs>
    <g id="User-Flows-&amp;-Mocks" stroke="none" stroke-width="1" fill="none" fill-rule="evenodd">
        <g id="Web-–-Landing-Page-Desktop" transform="translate(-466.000000, -1340.000000)">
            <g id="Details" transform="translate(0.000000, 1121.000000)">
                <g id="Group-29" transform="translate(349.000000, 49.000000)">
                    <g id="Group-16" transform="translate(58.000000, 170.000000)">
                        <g id="DetailIllustration/Pump" transform="translate(59.000000, 0.000000)">
                            <g>
                                <rect id="Rectangle" x="0" y="0" width="170" height="170"></rect>
                                <g id="Group-3" transform="translate(26.228571, 2.914286)">
                                    <mask id="mask-2" fill="white">
                                        <use xlink:href="#path-1"></use>
                                    </mask>
                                    <g id="Clip-2"></g>
                                    <path d="M4.3758,143.329914 L49.3267143,143.329914 L94.2863714,143.329914 L4.3758,143.329914 Z M98.2906,147.335114 L0.371571429,147.335114 L0.371571429,14.1804286 C0.371571429,6.3614 6.44397143,-0.000485714286 13.9074571,-0.000485714286 L84.7547143,-0.000485714286 C92.2182,-0.000485714286 98.2906,6.3614 98.2906,14.1804286 L98.2906,147.335114 Z" id="Fill-1" fill="#FFFFFF" mask="url(#mask-2)"></path>
                                </g>
                                <g id="Group-6" transform="translate(11.657143, 145.714286)">
                                    <mask id="mask-4" fill="white">
                                        <use xlink:href="#path-3"></use>
                                    </mask>
                                    <g id="Clip-5"></g>
                                    <path d="M122.598851,22.3424686 L5.20559429,22.3424686 C2.33502286,22.3424686 -0.000291428571,20.0081257 -0.000291428571,17.1375543 L-0.000291428571,5.73589714 C-0.000291428571,2.86532571 2.33502286,0.530011429 5.20559429,0.530011429 L122.598851,0.530011429 C125.469423,0.530011429 127.804737,2.86532571 127.804737,5.73589714 L127.804737,17.1375543 C127.804737,20.0081257 125.469423,22.3424686 122.598851,22.3424686" id="Fill-4" fill="#FFFFFF" mask="url(#mask-4)"></path>
                                </g>
                                <g id="Group-9" transform="translate(30.114286, 2.914286)">
                                    <mask id="mask-6" fill="white">
                                        <use xlink:href="#path-5"></use>
                                    </mask>
                                    <g id="Clip-8"></g>
                                    <path d="M0.490085714,143.329914 L90.4006571,143.329914 L0.490085714,143.329914 Z M94.4048857,147.335114 L45.4351714,147.335114 L45.4361429,-0.000485714286 L80.869,-0.000485714286 C88.3324857,-0.000485714286 94.4048857,6.3614 94.4048857,14.1804286 L94.4048857,147.335114 Z" id="Fill-7" fill="#DAF0F3" mask="url(#mask-6)"></path>
                                </g>
                                <path d="M134.255994,168.056754 L75.5535371,168.056754 L75.5535371,146.244297 L134.255994,146.244297 C137.126566,146.244297 139.46188,148.579611 139.46188,151.450183 L139.46188,162.85184 C139.46188,165.722411 137.126566,168.056754 134.255994,168.056754" id="Fill-10" fill="#DAF0F3"></path>
                                <path d="M131.114977,109.347886 L122.641206,109.347886 L122.641206,105.343657 L131.114977,105.343657 C135.445606,105.343657 138.492977,103.718457 140.172577,100.515657 C141.454863,98.0705714 141.490806,95.5691429 141.490806,95.5458286 L141.490806,36.6238286 L145.495034,36.6238286 L145.495034,95.5458286 C145.495034,95.6866857 145.474634,99.0274286 143.719263,102.374971 C142.05132,105.5564 138.509491,109.347886 131.114977,109.347886" id="Fill-12" fill="#08242F"></path>
                                <path d="M145.494743,41.4551314 L141.490514,41.4551314 L141.490514,35.8820457 C141.490514,35.6100457 141.526457,33.1610743 142.775714,30.6334171 C144.011371,28.1358743 146.6352,25.1594171 152.117943,25.1594171 L157.750286,25.1594171 L157.750286,29.1636457 L152.117943,29.1636457 C149.370743,29.1636457 147.5056,30.1914171 146.4176,32.3062171 C145.523886,34.04216 145.495714,35.8733029 145.494743,35.8907886 L145.494743,41.4551314 Z" id="Fill-14" fill="#08242F"></path>
                                <path d="M142.729377,74.4343543 L142.03772,70.4893829 C144.923834,69.98424 150.24532,66.3744114 152.321263,61.1743543 C153.376234,58.5291543 153.63172,54.2480686 151.82292,50.64504 C150.470691,47.9502971 148.269434,46.1803543 145.283263,45.3837829 C145.227891,45.3692114 144.37012,45.14384 144.324463,45.1312114 L145.329891,41.2552114 C145.35612,41.2629829 146.293549,41.5077829 146.319777,41.5155543 C150.397834,42.6035543 153.540406,45.1399543 155.401663,48.8478971 C157.483434,52.9939543 157.733091,58.4154971 156.039891,62.6586971 C154.35932,66.8737257 149.11652,73.3142971 142.729377,74.4343543" id="Fill-16" fill="#08242F"></path>
                                <path d="M54.1311086,29.1633543 C53.4802514,29.1633543 52.9304229,29.7131829 52.9304229,30.36404 L52.9304229,63.6403257 C52.9304229,64.2911829 53.4802514,64.8419829 54.1311086,64.8419829 L96.9876229,64.8419829 C97.63848,64.8419829 98.18928,64.2911829 98.18928,63.6403257 L98.18928,30.36404 C98.18928,29.7131829 97.63848,29.1633543 96.9876229,29.1633543 L54.1311086,29.1633543 Z M96.9876229,68.8462114 L54.1311086,68.8462114 C51.2605371,68.8462114 48.9261943,66.5099257 48.9261943,63.6403257 L48.9261943,30.36404 C48.9261943,27.4934686 51.2605371,25.1591257 54.1311086,25.1591257 L96.9876229,25.1591257 C99.8581943,25.1591257 102.193509,27.4934686 102.193509,30.36404 L102.193509,63.6403257 C102.193509,66.5099257 99.8581943,68.8462114 96.9876229,68.8462114 Z" id="Fill-18" fill="#08242F"></path>
                                <g id="Group-22" transform="translate(11.657143, 145.714286)">
                                    <mask id="mask-8" fill="white">
                                        <use xlink:href="#path-7"></use>
                                    </mask>
                                    <g id="Clip-21"></g>
                                    <path d="M5.20578857,4.53511429 C4.55396,4.53511429 4.00510286,5.08397143 4.00510286,5.7358 L4.00510286,17.1374571 C4.00510286,17.7883143 4.55396,18.3381429 5.20578857,18.3381429 L122.599046,18.3381429 C123.250874,18.3381429 123.799731,17.7883143 123.799731,17.1374571 L123.799731,5.7358 C123.799731,5.08397143 123.250874,4.53511429 122.599046,4.53511429 L5.20578857,4.53511429 Z M122.599046,22.3423714 L63.8985314,22.3423714 L5.20578857,22.3423714 C2.33521714,22.3423714 -9.71428571e-05,20.0080286 -9.71428571e-05,17.1374571 L-9.71428571e-05,5.7358 C-9.71428571e-05,2.86522857 2.33521714,0.529914286 5.20578857,0.529914286 L122.599046,0.529914286 C125.469617,0.529914286 127.804931,2.86522857 127.804931,5.7358 L127.804931,17.1374571 C127.804931,20.0080286 125.469617,22.3423714 122.599046,22.3423714 Z" id="Fill-20" fill="#08242F" mask="url(#mask-8)"></path>
                                </g>
                                <g id="Group-25" transform="translate(26.228571, 2.914286)">
                                    <mask id="mask-10" fill="white">
                                        <use xlink:href="#path-9"></use>
                                    </mask>
                                    <g id="Clip-24"></g>
                                    <path d="M4.3758,143.329914 L94.2863714,143.329914 L94.2863714,14.1804286 C94.2863714,8.56945714 90.0101429,4.00471429 84.7547143,4.00471429 L13.9074571,4.00471429 C8.65105714,4.00471429 4.3758,8.56945714 4.3758,14.1804286 L4.3758,143.329914 Z M98.2906,147.335114 L0.371571429,147.335114 L0.371571429,14.1804286 C0.371571429,6.3614 6.44397143,-0.000485714286 13.9074571,-0.000485714286 L84.7547143,-0.000485714286 C92.2182,-0.000485714286 98.2906,6.3614 98.2906,14.1804286 L98.2906,147.335114 Z" id="Fill-23" fill="#08242F" mask="url(#mask-10)"></path>
                                </g>
                            </g>
                        </g>
                    </g>
                </g>
            </g>
        </g>
    </g>
</svg>