<svg width="260" height="260" viewBox="0 0 260 260" fill="none" xmlns="http://www.w3.org/2000/svg">
<path fill-rule="evenodd" clip-rule="evenodd" d="M215 244L240 253V225L253 205.346L228 200L215 173L204 200L175 205.346L184 216L192 225L190 256L215 244Z" fill="#DAF0F3"/>
<path fill-rule="evenodd" clip-rule="evenodd" d="M130 240L170 255L164 212L191 182L170 167L171 147L191 141V113L146 84L148 67L158 46L154 5H130V240Z" fill="#DAF0F3"/>
<path d="M168.813 212.807L191.506 189.209C194.556 186.037 195.633 181.381 194.317 177.059C193.001 172.736 189.564 169.645 185.349 168.992L174.515 167.313V150.702L187.252 147.984V156.056C187.252 158.3 188.957 160.119 191.061 160.119C193.164 160.119 194.869 158.3 194.869 156.056V119.473C194.869 111.088 190.246 103.429 183.092 99.9599L152.632 85.1891C151.09 84.441 150.093 82.7892 150.093 80.9809V70.1026C157.527 63.7831 162.305 54.0517 162.305 43.1463V25.7769C162.305 11.9488 158.015 2.63614 157.832 2.24608C157.187 0.869504 155.868 0 154.425 0H123.709C119.965 0 116.439 1.40258 113.649 3.80306C113.547 3.8036 113.445 3.80469 113.342 3.81444C107.931 4.29768 97.6981 8.9995 97.6981 23.3341V43.1474C97.6981 54.0528 102.476 63.7842 109.91 70.1037V80.9819C109.91 82.7898 108.913 84.4415 107.37 85.1902L76.9107 99.961C69.7562 103.43 65.1335 111.09 65.1335 119.474V156.057C65.1335 158.301 66.8388 160.12 68.9421 160.12C71.0455 160.12 72.7507 158.301 72.7507 156.057V144.687L85.4872 150.122V167.313L74.654 168.993C70.4381 169.646 67.0018 172.737 65.685 177.059C64.3683 181.382 65.4458 186.037 68.4963 189.209L91.1894 212.808L85.8325 246.129C85.1124 250.608 86.806 255.05 90.2525 257.721C93.6985 260.392 98.1815 260.737 101.953 258.623L130.002 242.891L158.052 258.623C159.691 259.543 161.466 259.997 163.232 259.997C165.526 259.997 167.804 259.23 169.752 257.721C173.198 255.05 174.892 250.608 174.172 246.129L168.813 212.807ZM108.698 14.3579C109.104 15.3596 109.881 16.1863 110.921 16.5785C112.904 17.3251 115.08 16.2172 115.781 14.1022C116.966 10.5278 120.151 8.1262 123.707 8.1262H151.874C152.834 10.9417 154.295 16.2248 154.62 23.0329C149.493 24.9046 136.163 28.4162 120.946 21.6634C119.222 20.8984 117.225 21.5935 116.24 23.2848C116.195 23.3617 112.402 29.7473 105.313 33.1955V23.3341C105.314 19.3019 106.426 16.3564 108.698 14.3579ZM105.314 43.1474V41.9025C113.07 39.2024 118.25 33.6864 120.827 30.321C135.244 35.7975 147.838 33.6154 154.685 31.5264V43.1474C154.685 57.6695 143.611 69.4834 129.999 69.4834C116.387 69.4834 105.314 57.6695 105.314 43.1474ZM130 77.609C134.419 77.609 138.633 76.655 142.473 74.9333V80.9809C142.473 85.9676 145.223 90.5232 149.478 92.5867L149.793 92.7389C147.273 102.046 139.299 108.567 129.999 108.567C120.699 108.567 112.725 102.046 110.205 92.7389L110.52 92.5867C114.775 90.5232 117.525 85.9676 117.525 80.9809V74.9333C121.366 76.655 125.58 77.609 130 77.609ZM93.1018 147.303C93.1018 147.298 93.1018 147.294 93.1018 147.29V130.001C93.1018 127.757 91.3966 125.938 89.2932 125.938C87.1899 125.938 85.4846 127.757 85.4846 130.001V141.37L72.7482 135.936V119.473C72.7482 114.267 75.6184 109.511 80.0602 107.357L103.218 96.1276C106.992 108.278 117.641 116.693 129.999 116.693C142.357 116.693 153.007 108.278 156.78 96.1276L179.938 107.357C184.38 109.511 187.25 114.267 187.25 119.473V139.698L174.513 142.415V130.001C174.513 127.757 172.808 125.938 170.705 125.938C168.601 125.938 166.896 127.757 166.896 130.001V147.335C166.896 147.345 166.896 147.356 166.896 147.365V166.133L153.986 164.131L139.961 133.815C138.076 129.74 134.258 127.208 129.998 127.208C125.738 127.208 121.92 129.74 120.035 133.815L106.01 164.131L93.0998 166.133V147.303H93.1018ZM165.273 251.146C164.173 251.999 162.798 252.106 161.594 251.43L131.772 234.703C131.217 234.392 130.608 234.237 130 234.237C129.392 234.237 128.783 234.392 128.228 234.703L98.4065 251.43C97.2029 252.105 95.8273 251.998 94.7279 251.146C93.6279 250.294 93.1084 248.932 93.3385 247.502L99.0341 212.076C99.2459 210.758 98.8366 209.413 97.9388 208.479L73.8121 183.39C72.8386 182.377 72.508 180.949 72.928 179.57C73.3484 178.191 74.4021 177.243 75.7478 177.034L109.09 171.865C110.33 171.673 111.403 170.842 111.957 169.643L126.868 137.411C127.47 136.11 128.641 135.334 130.001 135.334C131.36 135.334 132.531 136.111 133.133 137.411L148.044 169.643C148.598 170.841 149.671 171.673 150.911 171.865L184.253 177.034C185.598 177.243 186.653 178.191 187.073 179.57C187.493 180.949 187.163 182.378 186.189 183.39L162.062 208.479C161.165 209.413 160.755 210.758 160.967 212.076L166.663 247.502C166.892 248.931 166.373 250.294 165.273 251.146Z" fill="black"/>
<path d="M72.9016 215.117L65.0045 223.329C64.1067 224.263 63.6969 225.608 63.9092 226.925L67.7061 250.543C67.798 251.115 67.5279 251.46 67.2846 251.648C67.0414 251.836 66.6499 252.004 66.1695 251.734L46.2881 240.583C45.178 239.961 43.8531 239.961 42.7435 240.583L22.8622 251.734C22.3807 252.004 21.9902 251.836 21.747 251.648C21.5038 251.459 21.2336 251.115 21.3255 250.543L25.1224 226.925C25.3342 225.607 24.9249 224.263 24.0271 223.329L7.9426 206.603C7.55311 206.197 7.58206 205.749 7.67448 205.444C7.76741 205.14 7.99135 204.759 8.52964 204.675L30.7576 201.23C31.9982 201.037 33.0707 200.206 33.6252 199.007L43.5662 177.518C43.8069 176.998 44.2157 176.888 44.5158 176.888C44.8159 176.888 45.2247 176.998 45.4654 177.518L54.1673 196.328C55.0981 198.341 57.3807 199.166 59.2683 198.174C61.1543 197.181 61.9287 194.744 60.9979 192.732L52.296 173.922C50.8239 170.739 47.8425 168.762 44.5158 168.762C41.1891 168.762 38.2078 170.739 36.7356 173.922L27.6813 193.495L7.43479 196.633C4.14264 197.143 1.45834 199.557 0.431032 202.933C-0.596781 206.308 0.244157 209.944 2.62682 212.421L17.2772 227.656L13.8185 249.168C13.2564 252.666 14.5787 256.135 17.2701 258.221C18.791 259.4 20.5704 259.999 22.362 259.999C23.7407 259.999 25.127 259.644 26.4077 258.926L44.5168 248.768L62.6259 258.925C65.5708 260.577 69.0716 260.307 71.763 258.221C74.4544 256.135 75.7773 252.666 75.2146 249.168L71.7559 227.656L78.2189 220.935C79.725 219.368 79.756 216.796 78.2879 215.189C76.8188 213.583 74.4072 213.551 72.9016 215.117Z" fill="black"/>
<path d="M259.569 202.934C258.541 199.558 255.857 197.144 252.565 196.634L232.319 193.496L223.264 173.923C221.792 170.74 218.81 168.763 215.484 168.763C212.157 168.763 209.176 170.74 207.704 173.923L199.002 192.733C198.071 194.745 198.845 197.181 200.731 198.175C202.617 199.168 204.901 198.342 205.832 196.33L214.534 177.52C214.775 176.999 215.184 176.89 215.484 176.89C215.784 176.89 216.193 176.999 216.433 177.52L226.374 199.008C226.929 200.207 228.001 201.039 229.242 201.231L251.47 204.676C252.009 204.76 252.232 205.141 252.325 205.446C252.418 205.75 252.446 206.199 252.057 206.604L235.973 223.33C235.075 224.264 234.666 225.609 234.878 226.926L238.675 250.544C238.767 251.117 238.496 251.461 238.253 251.649C238.01 251.838 237.619 252.006 237.138 251.735L217.257 240.584C216.146 239.963 214.821 239.963 213.712 240.584L193.83 251.735C193.348 252.005 192.957 251.837 192.714 251.649C192.472 251.46 192.201 251.115 192.293 250.543L196.09 226.925C196.302 225.607 195.892 224.263 194.995 223.329L187.098 215.117C185.592 213.551 183.18 213.584 181.712 215.191C180.244 216.798 180.275 219.37 181.781 220.936L188.244 227.657L184.785 249.17C184.223 252.668 185.546 256.137 188.237 258.223C190.928 260.309 194.429 260.578 197.374 258.927L215.483 248.77L233.592 258.926C234.873 259.645 236.259 260 237.638 260C239.429 260 241.209 259.4 242.729 258.222C245.421 256.135 246.743 252.666 246.181 249.169L242.722 227.657L257.373 212.421C259.755 209.945 260.597 206.31 259.569 202.934Z" fill="black"/>
</svg>
