<svg width="183" height="26" viewBox="0 0 183 26" fill="none" xmlns="http://www.w3.org/2000/svg">
<path d="M10.9697 18.6416C10.9697 20.6338 10.4163 22.2497 9.30957 23.4893C8.2028 24.7178 6.7972 25.332 5.09277 25.332C3.15592 25.332 1.60091 25.0498 0.427734 24.4854V22.7256C1.00326 23.0465 1.71712 23.3011 2.56934 23.4893C3.42155 23.6774 4.2627 23.7715 5.09277 23.7715C6.33236 23.7715 7.35059 23.3011 8.14746 22.3604C8.94434 21.4196 9.34277 20.2243 9.34277 18.7744C9.34277 17.4352 9.06055 16.3727 8.49609 15.5869C7.93164 14.8011 6.85254 14.0153 5.25879 13.2295C4.00814 12.5986 3.07292 11.9899 2.45312 11.4033C1.83333 10.8057 1.37402 10.1139 1.0752 9.32812C0.776367 8.54232 0.626953 7.60156 0.626953 6.50586C0.626953 5.31055 0.870443 4.24805 1.35742 3.31836C1.8444 2.38867 2.52507 1.66927 3.39941 1.16016C4.27376 0.639974 5.23112 0.379883 6.27148 0.379883C7.21224 0.379883 8.06445 0.485026 8.82812 0.695312C9.60286 0.905599 10.2116 1.13249 10.6543 1.37598L10.0234 2.93652C8.79492 2.30566 7.54427 1.99023 6.27148 1.99023C5.07617 1.99023 4.10221 2.39974 3.34961 3.21875C2.60807 4.02669 2.2373 5.10026 2.2373 6.43945C2.2373 7.80078 2.50846 8.85775 3.05078 9.61035C3.5931 10.363 4.6556 11.1432 6.23828 11.9512C7.8763 12.748 9.07161 13.6833 9.82422 14.7568C10.5879 15.8193 10.9697 17.1143 10.9697 18.6416ZM26.8242 25H25.1973V13.0635H16.7305V25H15.1035V0.728516H16.7305V11.5029H25.1973V0.728516H26.8242V25ZM45.3184 12.8311C45.3184 16.8486 44.7152 19.9365 43.5088 22.0947C42.3135 24.2529 40.5814 25.332 38.3125 25.332C36.0215 25.332 34.2839 24.2474 33.0996 22.0781C31.9154 19.8978 31.3232 16.8044 31.3232 12.7979C31.3232 8.61426 31.9098 5.4987 33.083 3.45117C34.2562 1.40365 36.016 0.379883 38.3623 0.379883C40.6201 0.379883 42.3411 1.45898 43.5254 3.61719C44.7207 5.76432 45.3184 8.83561 45.3184 12.8311ZM33.0166 12.8311C33.0166 16.4391 33.4648 19.1673 34.3613 21.0156C35.2689 22.8529 36.5859 23.7715 38.3125 23.7715C40.0501 23.7715 41.3672 22.8584 42.2637 21.0322C43.1712 19.2061 43.625 16.4723 43.625 12.8311C43.625 9.23405 43.1823 6.52246 42.2969 4.69629C41.4115 2.85905 40.0999 1.94043 38.3623 1.94043C36.5804 1.94043 35.2412 2.87012 34.3447 4.72949C33.4593 6.5778 33.0166 9.27832 33.0166 12.8311ZM59.9941 7.70117C59.9941 10.2025 59.4186 12.0397 58.2676 13.2129C57.1276 14.3861 55.4342 14.9727 53.1875 14.9727H51.4609V25H49.834V0.728516H53.1543C55.5228 0.728516 57.2549 1.28743 58.3506 2.40527C59.4463 3.52311 59.9941 5.28841 59.9941 7.70117ZM51.4609 13.4785H53.0879C54.9915 13.4785 56.3418 13.0303 57.1387 12.1338C57.9355 11.2373 58.334 9.75977 58.334 7.70117C58.334 5.74219 57.9189 4.34212 57.0889 3.50098C56.2699 2.64876 54.9971 2.22266 53.2705 2.22266H51.4609V13.4785ZM73.2422 13.2627L77.1934 0.728516H78.9199L74.0225 15.5205V25H72.3955V15.5205L67.5312 0.728516H69.2578L73.2422 13.2627ZM94.7578 12.8311C94.7578 16.8486 94.1546 19.9365 92.9482 22.0947C91.7529 24.2529 90.0208 25.332 87.752 25.332C85.4609 25.332 83.7233 24.2474 82.5391 22.0781C81.3548 19.8978 80.7627 16.8044 80.7627 12.7979C80.7627 8.61426 81.3493 5.4987 82.5225 3.45117C83.6956 1.40365 85.4554 0.379883 87.8018 0.379883C90.0596 0.379883 91.7806 1.45898 92.9648 3.61719C94.1602 5.76432 94.7578 8.83561 94.7578 12.8311ZM82.4561 12.8311C82.4561 16.4391 82.9043 19.1673 83.8008 21.0156C84.7083 22.8529 86.0254 23.7715 87.752 23.7715C89.4896 23.7715 90.8066 22.8584 91.7031 21.0322C92.6107 19.2061 93.0645 16.4723 93.0645 12.8311C93.0645 9.23405 92.6217 6.52246 91.7363 4.69629C90.8509 2.85905 89.5394 1.94043 87.8018 1.94043C86.0199 1.94043 84.6807 2.87012 83.7842 4.72949C82.8988 6.5778 82.4561 9.27832 82.4561 12.8311ZM110.961 0.728516V17.1143C110.961 22.5928 109.002 25.332 105.084 25.332C103.125 25.332 101.631 24.6237 100.602 23.207C99.5723 21.7904 99.0576 19.7594 99.0576 17.1143V0.728516H100.701V17.3135C100.701 19.4163 101.077 21.0212 101.83 22.1279C102.594 23.2236 103.678 23.7715 105.084 23.7715C106.479 23.7715 107.535 23.2236 108.255 22.1279C108.974 21.0212 109.334 19.3942 109.334 17.2471V0.728516H110.961ZM117.701 14.3916V25H116.074V0.728516H119.395C121.763 0.728516 123.495 1.28743 124.591 2.40527C125.687 3.52311 126.234 5.19434 126.234 7.41895C126.234 9.10124 125.936 10.4847 125.338 11.5693C124.74 12.654 123.739 13.4674 122.333 14.0098L127.147 25H125.321L120.789 14.3916H117.701ZM117.701 12.8975H119.976C121.448 12.8975 122.582 12.4437 123.379 11.5361C124.176 10.6286 124.574 9.27832 124.574 7.48535C124.574 5.65918 124.165 4.34212 123.346 3.53418C122.538 2.72624 121.259 2.32227 119.511 2.32227H117.701V12.8975ZM155.586 0.728516H157.246L152.083 25H150.107L146.405 6.83789C146.339 6.53906 146.145 5.21647 145.824 2.87012L145.592 4.44727L145.21 6.80469L141.574 25H139.648L134.436 0.728516H136.146L139.565 17.4463C140.097 20.1689 140.44 22.0726 140.595 23.1572C140.838 21.3864 141.154 19.5049 141.541 17.5127L144.944 0.728516H146.787L150.174 17.4463C150.528 19.2614 150.783 20.7555 150.938 21.9287L151.104 23.1572C151.424 20.8219 151.74 18.9183 152.05 17.4463L155.586 0.728516ZM169.282 25L167.141 16.2012H161.247L159.139 25H157.445L163.289 0.728516H164.966L170.942 25H169.282ZM166.759 14.5576L164.617 5.50977C164.396 4.49154 164.224 3.52865 164.103 2.62109C164.003 3.58398 163.848 4.54688 163.638 5.50977L161.562 14.5576H166.759ZM176.67 13.2627L180.621 0.728516H182.348L177.45 15.5205V25H175.823V15.5205L170.959 0.728516H172.686L176.67 13.2627Z" fill="black"/>
</svg>
