<svg xmlns="http://www.w3.org/2000/svg" width="90" height="106" viewBox="0 0 90 106">
  <g fill="none" transform="translate(2 2)">
    <ellipse cx="43.26" cy="97.09" fill="#020202" opacity=".1" rx="28.35" ry="6.36"/>
    <path fill="#42C2D0" stroke="#062531" stroke-width="3" d="M86 41.56c0 22.87-19.23 41.41-42.93 41.41S.15 64.43.15 41.56C.15 18.68 19.37.14 43.07.14c23.7 0 42.92 18.54 42.92 41.42"/>
    <path fill="#062531" d="M60.53 66.38H26.37c2.4-6.43 9.14-11.06 17.08-11.06 7.94 0 14.67 4.63 17.08 11.06"/>
    <path fill="#ED5340" d="M58.2 62.62H28.67c3.1-4.39 8.56-7.3 14.76-7.3 6.2 0 11.66 2.91 14.77 7.3"/>
    <path fill="#FEFEFE" d="M28.37 43.04c-7.88 1.67-15.97-2.02-18.08-8.24a9.32 9.32 0 0 1-.5-3.26l27.39-5.8c.7.92 1.26 1.93 1.63 3.02 2.1 6.22-2.57 12.62-10.44 14.28zm18.96-14.28c-2.1 6.22 2.57 12.62 10.44 14.28 7.88 1.67 15.97-2.02 18.08-8.24.37-1.1.53-2.19.5-3.26l-27.39-5.8c-.7.92-1.26 1.93-1.63 3.02"/>
    <path fill="#062531" d="M59.62 41.8a3.7 3.7 0 0 1-3.76-3.65 3.7 3.7 0 0 1 3.76-3.65 3.7 3.7 0 0 1 3.77 3.65 3.7 3.7 0 0 1-3.77 3.66zm-30.96 0a3.7 3.7 0 0 1-3.76-3.65 3.7 3.7 0 0 1 3.76-3.65 3.7 3.7 0 0 1 3.77 3.65 3.7 3.7 0 0 1-3.77 3.66z"/>
  </g>
</svg>
