<svg xmlns="http://www.w3.org/2000/svg" width="90" height="106" viewBox="0 0 90 106">
  <g fill="none" transform="translate(2 2)">
    <ellipse cx="43.26" cy="97.09" fill="#020202" opacity=".1" rx="28.35" ry="6.36"/>
    <path fill="#42C2D0" stroke="#062531" stroke-width="3" d="M86 41.49c0 22.91-19.25 41.49-43 41.49S0 64.4 0 41.48C0 18.59 19.25 0 43 0s43 18.58 43 41.49z"/>
    <path fill="#FEFEFE" d="M40.13 27.66c0 6.72-5.64 12.17-12.61 12.17s-12.61-5.45-12.61-12.17 5.64-12.17 12.61-12.17 12.61 5.45 12.61 12.17m32.11 0c0 6.72-5.65 12.17-12.61 12.17-6.97 0-12.62-5.45-12.62-12.17s5.65-12.17 12.62-12.17c6.96 0 12.61 5.45 12.61 12.17"/>
    <path fill="#062531" d="M64.21 27.66a4.5 4.5 0 0 1-4.58 4.43 4.5 4.5 0 0 1-4.59-4.43 4.5 4.5 0 0 1 4.59-4.43 4.5 4.5 0 0 1 4.58 4.43m-30.96 0a4.5 4.5 0 0 1-4.58 4.43 4.5 4.5 0 0 1-4.59-4.43 4.5 4.5 0 0 1 4.59-4.43 4.5 4.5 0 0 1 4.58 4.43M64.21 52a21.06 21.06 0 0 1-5.18 8.14 22.04 22.04 0 0 1-15.46 6.24 22.04 22.04 0 0 1-15.45-6.24A21.04 21.04 0 0 1 22.93 52h41.28z"/>
    <path fill="#ED5340" d="M58.48 60.29A22.4 22.4 0 0 1 43 66.39a22.39 22.39 0 0 1-15.48-6.1A22.42 22.42 0 0 1 43 54.21c6.05 0 11.52 2.33 15.48 6.08"/>
    <path fill="#FEFEFE" d="M22.93 52L64.21 52 64.21 47.57 22.93 47.57z"/>
  </g>
</svg>
