<?xml version="1.0" encoding="UTF-8"?>
<svg width="170px" height="170px" viewBox="0 0 170 170" version="1.1" xmlns="http://www.w3.org/2000/svg" xmlns:xlink="http://www.w3.org/1999/xlink">
    <!-- Generator: sketchtool 49.3 (51167) - http://www.bohemiancoding.com/sketch -->
    <title>A92DCD2A-F944-439B-A3ED-BEC106267FB9</title>
    <desc>Created with sketchtool.</desc>
    <defs>
        <polygon id="path-1" points="0 161.257143 165.142857 161.257143 165.142857 0.0932571429 0 0.0932571429"></polygon>
    </defs>
    <g id="User-Flows-&amp;-Mocks" stroke="none" stroke-width="1" fill="none" fill-rule="evenodd">
        <g id="Web-–-Landing-Page-Desktop" transform="translate(-1286.000000, -1340.000000)">
            <g id="Details" transform="translate(0.000000, 1121.000000)">
                <g id="Group-29" transform="translate(349.000000, 49.000000)">
                    <g id="DetailIllustration/Save" transform="translate(937.000000, 170.000000)">
                        <g transform="translate(2.914286, 3.885714)">
                            <polygon id="Fill-1" fill="#FFFFFF" points="1.98948571 135.274343 145.246057 135.274343 145.246057 45.7406857 1.98948571 45.7406857"></polygon>
                            <polygon id="Fill-2" fill="#DAF0F3" points="73.6177714 135.274343 145.246057 135.274343 145.246057 45.7406857 73.6177714 45.7406857"></polygon>
                            <path d="M0,137.2648 L147.235543,137.2648 L147.235543,43.7502286 L0,43.7502286 L0,137.2648 Z M3.97897143,133.284857 L143.256571,133.284857 L143.256571,47.7301714 L3.97897143,47.7301714 L3.97897143,133.284857 Z" id="Fill-3" fill="#08242F"></path>
                            <g id="Group-25" transform="translate(0.000000, 0.878171)">
                                <path d="M73.6179657,64.75776 C59.9043086,64.75776 48.74648,75.9146171 48.74648,89.6292457 C48.74648,103.342903 59.9043086,114.49976 73.6179657,114.49976 C87.3316229,114.49976 98.4894514,103.342903 98.4894514,89.6292457 C98.4894514,75.9146171 87.3316229,64.75776 73.6179657,64.75776 M73.6179657,118.479703 C57.7098514,118.479703 44.7675086,105.53736 44.7675086,89.6292457 C44.7675086,73.7221029 57.7098514,60.7787886 73.6179657,60.7787886 C89.52608,60.7787886 102.468423,73.7221029 102.468423,89.6292457 C102.468423,105.53736 89.52608,118.479703 73.6179657,118.479703" id="Fill-4" fill="#08242F"></path>
                                <path d="M3.98295429,46.8755086 C3.98489714,52.8925371 3.98392571,53.7775086 3.98295429,54.5731086 C3.98295429,55.6426514 3.98101143,56.5499657 3.98684,69.6535657 C16.1131829,68.6899086 25.8177543,58.9882514 26.7823829,46.86288 C19.03524,46.8638514 16.41044,46.8667657 13.9002686,46.86968 C11.6718114,46.8725943 9.53175429,46.8745371 3.98295429,46.8755086 M1.99832571,73.7112229 L0.00981142857,73.7112229 L0.00884,71.7227086 C0.00204,56.6383657 0.00301142857,55.6931657 0.00398285714,54.5682514 C0.00398285714,53.6949371 0.00495428571,52.71088 0.00301142857,44.8860229 L0.00204,42.8955657 L1.99249714,42.8955657 C9.05381143,42.8955657 11.4182686,42.8926514 13.8954114,42.8897371 C16.6183257,42.8877943 19.4762686,42.88488 28.8505543,42.88488 L30.84004,42.88488 L30.84004,44.8733943 C30.84004,60.7747086 17.9015829,73.7112229 1.99832571,73.7112229" id="Fill-6" fill="#08242F"></path>
                                <polygon id="Fill-8" fill="#08242F" points="165.142857 116.489246 161.163886 116.489246 161.163886 28.9450743 19.8968 28.9450743 19.8968 24.9651314 165.142857 24.9651314"></polygon>
                                <polygon id="Fill-10" fill="#08242F" points="156.189394 125.442709 152.209451 125.442709 152.209451 37.8985371 10.9433371 37.8985371 10.9433371 33.9185943 156.189394 33.9185943"></polygon>
                                <path d="M120.45384,46.8631714 C121.418469,58.9875714 131.122069,68.6902 143.248411,69.6538571 C143.25424,56.5502571 143.253269,55.6429429 143.252297,54.5734 C143.252297,53.7778 143.251326,52.8928286 143.253269,46.8758 C137.703497,46.8748286 135.564411,46.8728857 133.335954,46.8699714 C130.824811,46.8670571 128.200011,46.8641429 120.45384,46.8631714 Z M147.226411,73.7115143 L145.237897,73.7115143 C129.33464,73.7115143 116.396183,60.7740286 116.396183,44.8736857 L116.396183,42.8842 L118.385669,42.8842 C127.759954,42.8842 130.616926,42.8871143 133.33984,42.8900286 C135.816983,42.8929429 138.182411,42.8958571 145.243726,42.8958571 L147.233211,42.8958571 L147.233211,44.8863143 C147.230297,52.7111714 147.231269,53.6942571 147.23224,54.5685429 C147.233211,55.6934571 147.234183,56.6386571 147.227383,71.723 L147.226411,73.7115143 Z" id="Fill-12" fill="#08242F"></path>
                                <path d="M3.98295429,132.382109 C9.53175429,132.384051 11.6718114,132.385994 13.9002686,132.388909 C16.41044,132.390851 19.03524,132.393766 26.7823829,132.394737 C25.8177543,120.269366 16.1131829,110.567709 3.98684,109.605023 C3.98101143,122.708623 3.98295429,123.614966 3.98295429,124.68548 C3.98392571,125.480109 3.98489714,126.36508 3.98295429,132.382109 Z M30.84004,136.372737 L28.8505543,136.372737 C19.4762686,136.372737 16.6183257,136.369823 13.8954114,136.36788 C11.4182686,136.364966 9.05381143,136.362051 1.99249714,136.362051 L0.00204,136.362051 L0.00301142857,134.371594 C0.00495428571,126.546737 0.00398285714,125.56268 0.00398285714,124.689366 C0.00301142857,123.564451 0.00204,122.619251 0.00884,107.534909 L0.00981142857,105.546394 L1.99832571,105.546394 C17.9015829,105.546394 30.84004,118.482909 30.84004,134.384223 L30.84004,136.372737 Z" id="Fill-14" fill="#08242F"></path>
                                <path d="M143.248703,109.604829 C131.12236,110.567514 121.41876,120.270143 120.454131,132.394543 C128.200303,132.393571 130.825103,132.390657 133.335274,132.388714 C135.564703,132.3858 137.703789,132.383857 143.252589,132.381914 C143.250646,126.364886 143.251617,125.479914 143.252589,124.685286 C143.25356,123.614771 143.254531,122.708429 143.248703,109.604829 M118.38596,136.373514 L116.395503,136.373514 L116.395503,134.384029 C116.395503,118.483686 129.33396,105.5462 145.237217,105.5462 L147.225731,105.5462 L147.226703,107.534714 C147.234474,122.619057 147.233503,123.564257 147.232531,124.689171 C147.23156,125.563457 147.230589,126.546543 147.233503,134.3714 L147.233503,136.361857 L145.243046,136.361857 C138.182703,136.361857 135.817274,136.364771 133.340131,136.367686 C130.617217,136.3706 127.759274,136.373514 118.38596,136.373514" id="Fill-16" fill="#08242F"></path>
                                <mask id="mask-2" fill="white">
                                    <use xlink:href="#path-1"></use>
                                </mask>
                                <g id="Clip-19"></g>
                                <polygon id="Fill-18" fill="#032531" mask="url(#mask-2)" points="71.6282857 18.0005714 75.6082286 18.0005714 75.6082286 0.0932571429 71.6282857 0.0932571429"></polygon>
                                <polygon id="Fill-20" fill="#032531" mask="url(#mask-2)" points="71.6282857 161.257143 75.6082286 161.257143 75.6082286 143.349829 71.6282857 143.349829"></polygon>
                                <polygon id="Fill-21" fill="#032531" mask="url(#mask-2)" points="80.5809714 18.0005714 84.5609143 18.0005714 84.5609143 9.04691429 80.5809714 9.04691429"></polygon>
                                <polygon id="Fill-22" fill="#032531" mask="url(#mask-2)" points="62.6746286 18.0005714 66.6536 18.0005714 66.6536 9.04691429 62.6746286 9.04691429"></polygon>
                                <polygon id="Fill-23" fill="#032531" mask="url(#mask-2)" points="80.5809714 152.304457 84.5609143 152.304457 84.5609143 143.3508 80.5809714 143.3508"></polygon>
                                <polygon id="Fill-24" fill="#032531" mask="url(#mask-2)" points="62.6746286 152.304457 66.6536 152.304457 66.6536 143.3508 62.6746286 143.3508"></polygon>
                            </g>
                        </g>
                    </g>
                </g>
            </g>
        </g>
    </g>
</svg>